<svg xmlns="http://www.w3.org/2000/svg" id="140946828" viewBox="0 -57 420 231.38182983398437">
    <defs id="SvgjsDefs6912"></defs>
    <g id="SvgjsG6913" featurekey="textGroupContainer" transform="matrix(1.2,0,0,1.2,0,-57)"
        fill="#111111">
        <rect xmlns="http://www.w3.org/2000/svg" y="0" x="0" height="1" width="1" opacity="0"></rect>
        <rect xmlns="http://www.w3.org/2000/svg" y="144.3181818181818" x="0" width="350" height="1"></rect>
    </g>
    <g id="SvgjsG6915" featurekey="jZLKOX-0"
        transform="matrix(1.2,0,0,1.2,0,70.8586950728334)"
        fill="#111111">
        <path
            d="M12.06 5.720000000000001 l0 2.64 l-7.54 0 l0 3.06 l6.92 0 l0 2.44 l-6.92 0 l0 3.5 l7.7 0 l0 2.64 l-10.84 0 l0 -14.28 l10.68 0 z M29.191499999999998 5.720000000000001 l3.18 10.04 l0.04 0 l3.22 -10.04 l3.24 0 l-4.74 14.28 l-3.54 0 l-4.64 -14.28 l3.24 0 z M63.923 5.720000000000001 l0 2.64 l-7.54 0 l0 3.06 l6.92 0 l0 2.44 l-6.92 0 l0 3.5 l7.7 0 l0 2.64 l-10.84 0 l0 -14.28 l10.68 0 z M82.4945 5.720000000000001 l0 11.64 l6.96 0 l0 2.64 l-10.1 0 l0 -14.28 l3.14 0 z M107.506 5.720000000000001 l0 14.28 l-3.14 0 l0 -14.28 l3.14 0 z M126.5375 5.720000000000001 l5.96 9.58 l0.04 0 l0 -9.58 l2.94 0 l0 14.28 l-3.14 0 l-5.94 -9.56 l-0.04 0 l0 9.56 l-2.94 0 l0 -14.28 l3.12 0 z M158.509 5.720000000000001 l5.34 14.28 l-3.26 0 l-1.08 -3.18 l-5.34 0 l-1.12 3.18 l-3.18 0 l5.42 -14.28 l3.22 0 z M156.849 9.24 l-1.86 5.24 l3.7 0 l-1.8 -5.24 l-0.04 0 z M200.092 5.720000000000001 l0 5.48 l5.78 0 l0 -5.48 l3.14 0 l0 14.28 l-3.14 0 l0 -6.16 l-5.78 0 l0 6.16 l-3.14 0 l0 -14.28 l3.14 0 z M232.0435 5.720000000000001 l5.34 14.28 l-3.26 0 l-1.08 -3.18 l-5.34 0 l-1.12 3.18 l-3.18 0 l5.42 -14.28 l3.22 0 z M230.3835 9.24 l-1.86 5.24 l3.7 0 l-1.8 -5.24 l-0.04 0 z M229.7035 1.8999999999999986 l0 2.34 l-2.7 0 l0 -2.34 l2.7 0 z M233.8235 1.8999999999999986 l0 2.34 l-2.7 0 l0 -2.34 l2.7 0 z M254.915 5.720000000000001 l0 11.64 l6.96 0 l0 2.64 l-10.1 0 l0 -14.28 l3.14 0 z M279.9265 5.720000000000001 l0 11.64 l6.96 0 l0 2.64 l-10.1 0 l0 -14.28 l3.14 0 z"></path>
    </g>
</svg>