<svg xmlns="http://www.w3.org/2000/svg" id="140946828" viewBox="0 -57 420 231.38182983398437"><defs id="SvgjsDefs6912"></defs><g id="SvgjsG6913" featurekey="textGroupContainer" transform="matrix(1.2,0,0,1.2,0,-57)" fill="#111111"><rect xmlns="http://www.w3.org/2000/svg" y="0" x="0" height="1" width="1" opacity="0"></rect><rect xmlns="http://www.w3.org/2000/svg" y="144.3181818181818" x="0" width="350" height="1"></rect></g><g id="SvgjsG6914" featurekey="xgcenu-0" transform="matrix(5.704040955022014,0,0,5.704040955022014,-2.281608426305169,-22.568647460596907)" fill="#111111"><path d="M0.9 6.74 c0.08 0.01334 0.14338 0.07664 0.19004 0.18998 s0.08 0.25334 0.1 0.42 s0.03666 0.34332 0.05 0.52998 s0.02668 0.36666 0.04002 0.54 c0.02666 0.21334 0.06666 0.62 0.12 1.22 s0.11668 1.29 0.19002 2.07 s0.15668 1.59 0.25002 2.43 s0.18668 1.6033 0.28002 2.29 s0.18668 1.2467 0.28002 1.68 s0.18 0.62334 0.26 0.57 c0.28 0.09334 0.55334 -0.01666 0.82 -0.33 s0.51332 -0.74334 0.73998 -1.29 s0.43332 -1.1767 0.61998 -1.89 s0.33666 -1.43 0.45 -2.15 s0.19334 -1.4033 0.24 -2.05 s0.04332 -1.1833 -0.01002 -1.61 c-0.01334 -0.09334 0.02332 -0.16 0.10998 -0.2 s0.18332 -0.06 0.28998 -0.06 s0.21332 0.02 0.31998 0.06 s0.17332 0.1 0.19998 0.18 c0 0.45334 -0.01334 0.98668 -0.04 1.6 s-0.04666 1.26 -0.06 1.94 s-0.02 1.36 -0.02 2.04 s0.02334 1.3033 0.07 1.87 s0.12666 1.0567 0.24 1.47 s0.27668 0.68668 0.49002 0.82002 c0.36 0.10666 0.68666 0.1 0.98 -0.02 s0.55 -0.28666 0.77 -0.5 s0.40334 -0.43668 0.55 -0.67002 s0.25332 -0.40334 0.31998 -0.51 c0.05334 -0.10666 0.09334 -0.11332 0.12 -0.01998 s0.0066602 0.24 -0.06 0.44 c-0.17334 0.30666 -0.38334 0.62666 -0.63 0.96 s-0.51332 0.61 -0.79998 0.83 s-0.58666 0.35334 -0.9 0.4 s-0.63 -0.06334 -0.95 -0.33 c-0.14666 -0.09334 -0.28 -0.3 -0.4 -0.62 s-0.22 -0.68666 -0.3 -1.1 s-0.13666 -0.84668 -0.17 -1.3 s-0.03668 -0.86 -0.01002 -1.22 c-0.4 1.1467 -0.74666 2.0134 -1.04 2.6 s-0.54668 1 -0.76002 1.24 s-0.39 0.36666 -0.53 0.38 s-0.25666 0.02 -0.35 0.02 c-0.14666 0.01334 -0.28 0.02 -0.4 0.02 s-0.23334 -0.03334 -0.34 -0.1 s-0.20332 -0.17666 -0.28998 -0.33 s-0.17 -0.37668 -0.25 -0.67002 c-0.22666 -1.8667 -0.43 -3.7734 -0.61 -5.72 s-0.40334 -3.8866 -0.67 -5.82 c0 -0.06666 0.02 -0.13332 0.06 -0.19998 s0.18666 -0.1 0.44 -0.1 z M11.24 14.04 c0.57334 -0.04 1.1367 -0.083378 1.69 -0.13004 s1.13 -0.09666 1.73 -0.15 c0.13334 0.01334 0.22 0.08334 0.26 0.21 s-0.01334 0.20332 -0.16 0.22998 c-0.49334 0.05334 -1.06 0.12668 -1.7 0.22002 s-1.2467 0.21334 -1.82 0.36 c0.02666 0.41334 0.04 0.83668 0.04 1.27 s0.01 0.86 0.03 1.28 s0.06 0.82666 0.12 1.22 s0.15666 0.75668 0.29 1.09 c0.18666 0.22666 0.37332 0.36 0.55998 0.4 s0.36332 0.03 0.52998 -0.03 s0.32 -0.15334 0.46 -0.28 s0.26334 -0.25 0.37 -0.37 c0.09334 -0.09334 0.17 -0.09334 0.23 0 s0.0033398 0.23334 -0.17 0.42 c-0.08 0.09334 -0.18 0.19334 -0.3 0.3 s-0.26334 0.19666 -0.43 0.27 s-0.35332 0.12 -0.55998 0.14 s-0.43 -0.0033398 -0.67 -0.07 c-0.30666 -0.08 -0.53332 -0.32666 -0.67998 -0.74 s-0.25666 -0.89668 -0.33 -1.45 s-0.12334 -1.13 -0.15 -1.73 s-0.06 -1.14 -0.1 -1.62 c-0.58666 0.05334 -1.0167 0.1 -1.29 0.14 s-0.47 0.06666 -0.59 0.08 s-0.2 0.0066796 -0.24 -0.01998 s-0.11334 -0.08666 -0.22 -0.18 c0.01334 -0.06666 0.01668 -0.13 0.01002 -0.19 s-0.0066602 -0.11 0 -0.15 s0.03332 -0.08 0.07998 -0.12 s0.13666 -0.07334 0.27 -0.1 c0.2 -0.05334 0.49 -0.08334 0.87 -0.09 s0.75 -0.03666 1.11 -0.09 c-0.01334 -0.42666 -0.02668 -0.76 -0.04002 -1 s-0.02668 -0.45 -0.04002 -0.63 s-0.02334 -0.35666 -0.03 -0.53 s-0.01 -0.4 -0.01 -0.68 c0 -0.06666 0.03666 -0.11666 0.11 -0.15 s0.15668 -0.05334 0.25002 -0.06 s0.18 0.0066796 0.26 0.04002 s0.13334 0.08334 0.16 0.15 c0.04 0.12 0.06666 0.29666 0.08 0.53 s0.02334 0.48 0.03 0.74 s0.01 0.52334 0.01 0.79 s-0.0066602 0.49332 -0.02 0.67998 z M16.84 14.04 c0.57334 -0.04 1.1367 -0.083378 1.69 -0.13004 s1.13 -0.09666 1.73 -0.15 c0.13334 0.01334 0.22 0.08334 0.26 0.21 s-0.01334 0.20332 -0.16 0.22998 c-0.49334 0.05334 -1.06 0.12668 -1.7 0.22002 s-1.2467 0.21334 -1.82 0.36 c0.02666 0.41334 0.04 0.83668 0.04 1.27 s0.01 0.86 0.03 1.28 s0.06 0.82666 0.12 1.22 s0.15666 0.75668 0.29 1.09 c0.18666 0.22666 0.37332 0.36 0.55998 0.4 s0.36332 0.03 0.52998 -0.03 s0.32 -0.15334 0.46 -0.28 s0.26334 -0.25 0.37 -0.37 c0.09334 -0.09334 0.17 -0.09334 0.23 0 s0.0033398 0.23334 -0.17 0.42 c-0.08 0.09334 -0.18 0.19334 -0.3 0.3 s-0.26334 0.19666 -0.43 0.27 s-0.35332 0.12 -0.55998 0.14 s-0.43 -0.0033398 -0.67 -0.07 c-0.30666 -0.08 -0.53332 -0.32666 -0.67998 -0.74 s-0.25666 -0.89668 -0.33 -1.45 s-0.12334 -1.13 -0.15 -1.73 s-0.06 -1.14 -0.1 -1.62 c-0.58666 0.05334 -1.0167 0.1 -1.29 0.14 s-0.47 0.06666 -0.59 0.08 s-0.2 0.0066796 -0.24 -0.01998 s-0.11334 -0.08666 -0.22 -0.18 c0.01334 -0.06666 0.01668 -0.13 0.01002 -0.19 s-0.0066602 -0.11 0 -0.15 s0.03332 -0.08 0.07998 -0.12 s0.13666 -0.07334 0.27 -0.1 c0.2 -0.05334 0.49 -0.08334 0.87 -0.09 s0.75 -0.03666 1.11 -0.09 c-0.01334 -0.42666 -0.02668 -0.76 -0.04002 -1 s-0.02668 -0.45 -0.04002 -0.63 s-0.02334 -0.35666 -0.03 -0.53 s-0.01 -0.4 -0.01 -0.68 c0 -0.06666 0.03666 -0.11666 0.11 -0.15 s0.15668 -0.05334 0.25002 -0.06 s0.18 0.0066796 0.26 0.04002 s0.13334 0.08334 0.16 0.15 c0.04 0.12 0.06666 0.29666 0.08 0.53 s0.02334 0.48 0.03 0.74 s0.01 0.52334 0.01 0.79 s-0.0066602 0.49332 -0.02 0.67998 z M19.8 13.68 c-0.01334 -0.12 0.049902 -0.15008 0.1899 -0.090078 s0.28334 0.12334 0.43 0.19 c0.05334 0.30666 0.09334 0.55 0.12 0.73 s0.04666 0.35 0.06 0.51 s0.02668 0.33334 0.04002 0.52 s0.03334 0.43332 0.06 0.73998 c0.12 -0.30666 0.26666 -0.59 0.44 -0.85 s0.39668 -0.48334 0.67002 -0.67 s0.6 -0.32332 0.98 -0.40998 s0.83666 -0.11666 1.37 -0.09 c0 0.10666 -0.03666 0.19666 -0.11 0.27 s-0.24334 0.13 -0.51 0.17 c-0.38666 0.06666 -0.72332 0.19666 -1.01 0.39 s-0.53332 0.41668 -0.73998 0.67002 s-0.37332 0.52334 -0.49998 0.81 s-0.23 0.55 -0.31 0.79 c-0.01334 0.12 -0.03 0.29 -0.05 0.51 s-0.03334 0.45334 -0.04 0.7 s-0.01332 0.48666 -0.01998 0.72 s0.0033398 0.41668 0.03 0.55002 c0.01334 0.06666 -0.01666 0.11666 -0.09 0.15 s-0.15668 0.05668 -0.25002 0.07002 s-0.18 0.0066796 -0.26 -0.01998 s-0.12 -0.07332 -0.12 -0.13998 c0.02666 -1.3733 -0.01 -2.5566 -0.11 -3.55 s-0.19 -1.8833 -0.27 -2.67 z M25.82 18.6 c0.30666 0.14666 0.65662 -0.083458 1.05 -0.69012 s0.71 -1.59 0.95 -2.95 c0 -0.01334 0.04334 -0.01334 0.13 0 s0.17666 0.03334 0.27 0.06 s0.18 0.06 0.26 0.1 s0.12 0.07334 0.12 0.1 c0 0.2 -0.01334 0.44 -0.04 0.72 s-0.05666 0.58666 -0.09 0.92 s-0.05668 0.68668 -0.07002 1.06 s-0.01334 0.74668 0 1.12 c0.36 -0.30666 0.74334 -0.54 1.15 -0.7 s0.79666 -0.26 1.17 -0.3 c0.13334 0.06666 0.20334 0.11 0.21 0.13 s-0.02334 0.05666 -0.09 0.11 c-0.50666 0.14666 -0.95 0.34666 -1.33 0.6 s-0.74334 0.53334 -1.09 0.84 c0 0.42666 0.0066602 0.88666 0.02 1.38 s0.02 0.98668 0.02 1.48 s-0.0033398 0.98 -0.01 1.46 s-0.03332 0.91334 -0.07998 1.3 s-0.11332 0.71666 -0.19998 0.99 s-0.20332 0.45668 -0.34998 0.55002 c-0.10666 0.06666 -0.23 0.11 -0.37 0.13 s-0.28 0.02334 -0.42 0.01 s-0.27334 -0.04334 -0.4 -0.09 s-0.23 -0.11 -0.31 -0.19 c-0.25334 -0.25334 -0.43334 -0.57668 -0.54 -0.97002 s-0.16 -0.82334 -0.16 -1.29 s0.05334 -0.94666 0.16 -1.44 s0.25 -0.96668 0.43 -1.42 s0.4 -0.86334 0.66 -1.23 s0.54334 -0.65 0.85 -0.85 c0.04 -0.72 0.06 -1.4267 0.06 -2.12 c-0.13334 0.34666 -0.32668 0.72 -0.58002 1.12 s-0.56668 0.71334 -0.94002 0.94 c-0.41334 0.18666 -0.76334 0.16666 -1.05 -0.06 s-0.46332 -0.57332 -0.52998 -1.04 c-0.06666 -0.54666 -0.12 -1 -0.16 -1.36 s-0.07334 -0.7 -0.1 -1.02 s-0.05 -0.65334 -0.07 -1 s-0.05 -0.78 -0.09 -1.3 c0.06666 -0.04 0.16666 -0.05 0.3 -0.03 s0.23334 0.06334 0.3 0.13 c0.04 0 0.06666 0.10666 0.08 0.32 s0.02668 0.48668 0.04002 0.82002 s0.03334 0.69668 0.06 1.09 s0.07 0.76668 0.13 1.12 s0.14 0.66334 0.24 0.93 s0.23666 0.44 0.41 0.52 z M27.86 20.27988 c-0.08 0.09334 -0.16332 0.18332 -0.24998 0.26998 s-0.17 0.18332 -0.25 0.28998 c-0.17334 0.21334 -0.34 0.5 -0.5 0.86 s-0.29666 0.75334 -0.41 1.18 s-0.19 0.85666 -0.23 1.29 s-0.03 0.82 0.03 1.16 s0.18334 0.60666 0.37 0.8 s0.44666 0.27 0.78 0.23 c0.13334 -0.02666 0.24 -0.18 0.32 -0.46 s0.13666 -0.62334 0.17 -1.03 s0.05334 -0.85332 0.06 -1.34 s0.0033204 -0.95332 -0.01002 -1.4 s-0.03 -0.83666 -0.05 -1.17 s-0.03 -0.56 -0.03 -0.68 z M33.760000000000005 14.14 c0.01334 0.08 -0.049962 0.15996 -0.18996 0.23996 s-0.31666 0.19666 -0.53 0.35 s-0.44668 0.35668 -0.70002 0.61002 s-0.48 0.58668 -0.68 1 c-0.21334 0.45334 -0.36668 0.84668 -0.46002 1.18 s-0.07334 0.72668 0.06 1.18 c0.04 0.09334 0.09666 0.17668 0.17 0.25002 s0.18334 0.11668 0.33 0.13002 c0.29334 -0.05334 0.55334 -0.12668 0.78 -0.22002 s0.44 -0.20668 0.64 -0.34002 s0.39334 -0.27668 0.58 -0.43002 s0.38 -0.31 0.58 -0.47 c0.29334 -0.28 0.53668 -0.52334 0.73002 -0.73 s0.35 -0.38 0.47 -0.52 s0.22334 -0.24334 0.31 -0.31 s0.17666 -0.08666 0.27 -0.06 c-0.05334 0.12 -0.20334 0.37334 -0.45 0.76 s-0.56666 0.79666 -0.96 1.23 s-0.85 0.84 -1.37 1.22 s-1.08 0.61666 -1.68 0.71 c-0.24 -0.01334 -0.43666 -0.04 -0.59 -0.08 s-0.29668 -0.2 -0.43002 -0.48 c-0.16 -0.33334 -0.22 -0.73668 -0.18 -1.21 s0.14 -0.94334 0.3 -1.41 s0.36 -0.9 0.6 -1.3 s0.47334 -0.69334 0.7 -0.88 c0.32 -0.22666 0.61666 -0.36666 0.89 -0.42 s0.54334 -0.05334 0.81 0 z M36.56 16.08 c0.30666 0.06666 0.58338 0.12008 0.83004 0.16008 s0.49332 0.07666 0.73998 0.11 s0.52 0.06334 0.82 0.09 s0.65666 0.06 1.07 0.1 c0.12 0.13334 0.2 0.24334 0.24 0.33 s0.09334 0.22332 0.16 0.40998 c-0.42666 -0.08 -0.81332 -0.14 -1.16 -0.18 s-0.69 -0.07334 -1.03 -0.1 s-0.69 -0.05 -1.05 -0.07 s-0.76 -0.05 -1.2 -0.09 c-0.01334 0.68 0 1.2833 0.04 1.81 s0.04 1.0033 0 1.43 c-0.08 0.01334 -0.14334 0 -0.19 -0.04 s-0.09 -0.08666 -0.13 -0.14 s-0.08334 -0.11 -0.13 -0.17 s-0.11 -0.10334 -0.19 -0.13 c0.04 -1.84 0.03334 -3.5334 -0.02 -5.08 s-0.06668 -3.0266 -0.04002 -4.44 c0 -0.26666 0.0033398 -0.57 0.01 -0.91 s0.01 -0.67334 0.01 -1 s-0.0066602 -0.62 -0.02 -0.88 s-0.04 -0.43666 -0.08 -0.53 c0.09334 -0.10666 0.18334 -0.17332 0.27 -0.19998 s0.24332 -0.04666 0.46998 -0.06 c0.02666 1.6267 0.02666 3.2334 0 4.82 s-0.02666 3.0934 0 4.52 c0.22666 -0.17334 0.46666 -0.38668 0.72 -0.64002 s0.49 -0.5 0.71 -0.74 s0.41 -0.45 0.57 -0.63 s0.26 -0.27666 0.3 -0.29 c0.12 0.10666 0.24334 0.19666 0.37 0.27 s0.19 0.10334 0.19 0.09 c-0.33334 0.37334 -0.68 0.77 -1.04 1.19 s-0.77334 0.75 -1.24 0.99 z M42.480000000000004 13.7 c0.33334 0.05334 0.61008 0.12666 0.83008 0.22 s0.39334 0.19668 0.52 0.31002 s0.22666 0.23 0.3 0.35 s0.14334 0.23334 0.21 0.34 c-0.01334 0.05334 -0.07668 0.04668 -0.19002 -0.01998 s-0.22334 -0.13332 -0.33 -0.19998 c-0.29334 -0.18666 -0.64668 -0.3 -1.06 -0.34 s-0.79668 -0.01666 -1.15 0.07 s-0.63668 0.23666 -0.85002 0.45 s-0.26668 0.47334 -0.16002 0.78 s0.29666 0.57332 0.57 0.79998 s0.57668 0.43 0.91002 0.61 s0.66668 0.34334 1 0.49 s0.60668 0.29332 0.82002 0.43998 c0.26666 -0.14666 0.49332 -0.27 0.67998 -0.37 s0.35332 -0.19334 0.49998 -0.28 s0.29666 -0.16666 0.45 -0.24 s0.33 -0.15668 0.53 -0.25002 c0.02666 -0.01334 0.05 -0.02 0.07 -0.02 s0.02 0.01666 0 0.05 s-0.07334 0.08668 -0.16 0.16002 s-0.22332 0.17668 -0.40998 0.31002 c-0.09334 0.06666 -0.26668 0.18 -0.52002 0.34 s-0.52668 0.33334 -0.82002 0.52 c0.16 0.14666 0.28666 0.3 0.38 0.46 c0.08 0.14666 0.13666 0.30332 0.17 0.46998 s0.0033398 0.33666 -0.09 0.51 c-0.26666 0.42666 -0.56666 0.76 -0.9 1 s-0.64 0.40666 -0.92 0.5 c-0.18666 0.06666 -0.39332 0.07332 -0.61998 0.01998 s-0.40666 -0.16 -0.54 -0.32 c-0.14666 -0.21334 -0.18332 -0.43 -0.10998 -0.65 s0.19668 -0.43334 0.37002 -0.64 s0.37334 -0.40332 0.6 -0.58998 s0.42666 -0.35332 0.6 -0.49998 c-0.12 -0.13334 -0.35334 -0.29668 -0.7 -0.49002 s-0.70332 -0.40668 -1.07 -0.64002 s-0.69666 -0.48334 -0.99 -0.75 s-0.45334 -0.53332 -0.48 -0.79998 c-0.05334 -0.29334 -0.01668 -0.57668 0.10998 -0.85002 s0.31332 -0.51334 0.55998 -0.72 s0.53332 -0.36 0.85998 -0.46 s0.67 -0.12334 1.03 -0.07 z M42.300000000000004 20.55998 c0.14666 0.06666 0.31334 0.06664 0.5 -0.000019531 s0.36332 -0.16332 0.52998 -0.28998 s0.31332 -0.26666 0.43998 -0.42 s0.21 -0.29 0.25 -0.41 c0.04 -0.10666 0.0033398 -0.22332 -0.11 -0.34998 s-0.23 -0.23 -0.35 -0.31 c-0.14666 0.10666 -0.31332 0.24332 -0.49998 0.40998 s-0.35 0.33666 -0.49 0.51 s-0.24334 0.34 -0.31 0.5 s-0.05332 0.28 0.04002 0.36 z M51.72 9.3 l-0.30996 -0.000078126 l-0.12 -0.01 l-0.03 -0.03 l-0.02 -0.06 c-0.02666 0 -0.06332 -0.06334 -0.10998 -0.19 s-0.11 -0.26332 -0.19 -0.40998 s-0.18334 -0.28332 -0.31 -0.40998 s-0.27666 -0.19 -0.45 -0.19 c-0.37334 -0.09334 -0.68 -0.04334 -0.92 0.15 s-0.43666 0.47334 -0.59 0.84 s-0.26668 0.79 -0.34002 1.27 s-0.12668 0.96334 -0.16002 1.45 s-0.05 0.95332 -0.05 1.4 s-0.0066602 0.81 -0.02 1.09 c0.25334 -0.01334 0.46334 -0.02334 0.63 -0.03 s0.32 -0.01332 0.46 -0.01998 s0.27 -0.01332 0.39 -0.01998 s0.25334 -0.01 0.4 -0.01 c0.06666 0.01334 0.13332 0.05334 0.19998 0.12 s0.12332 0.14 0.16998 0.22 s0.08 0.15334 0.1 0.22 s0.01666 0.1 -0.01 0.1 c-0.24 0.04 -0.45334 0.06666 -0.64 0.08 s-0.36666 0.02668 -0.54 0.04002 s-0.35 0.02334 -0.53 0.03 s-0.38334 0.01666 -0.61 0.03 c0.01334 0.68 0.04 1.29 0.08 1.83 s0.07666 1.0533 0.11 1.54 s0.06668 0.96332 0.10002 1.43 s0.05668 0.96 0.07002 1.48 c-0.02666 0.10666 -0.09666 0.15666 -0.21 0.15 s-0.23 -0.01666 -0.35 -0.03 c-0.04 0 -0.06666 -0.0066602 -0.08 -0.02 s-0.02334 -0.07334 -0.03 -0.18 s-0.01332 -0.28666 -0.01998 -0.54 s-0.02 -0.61334 -0.04 -1.08 s-0.05 -1.0667 -0.09 -1.8 s-0.1 -1.64 -0.18 -2.72 c-0.30666 0.02666 -0.55332 0.04666 -0.73998 0.06 s-0.35 0.02334 -0.49 0.03 s-0.27666 0.01 -0.41 0.01 s-0.3 0.0066602 -0.5 0.02 c-0.09334 0 -0.14 -0.02334 -0.14 -0.07 s0.01666 -0.10666 0.05 -0.18 s0.07334 -0.14334 0.12 -0.21 s0.07666 -0.11332 0.09 -0.13998 c0.08 -0.02666 0.31334 -0.06 0.7 -0.1 s0.81332 -0.08666 1.28 -0.14 c-0.06666 -1.28 -0.05666 -2.35 0.03 -3.21 s0.21332 -1.5567 0.37998 -2.09 s0.35666 -0.93 0.57 -1.19 s0.41334 -0.43 0.6 -0.51 c0.46666 -0.18666 0.88332 -0.19666 1.25 -0.03 s0.67 0.39 0.91 0.67 s0.41 0.56334 0.51 0.85 s0.11 0.45666 0.03 0.51 z M51.24 19.12 c0.09334 0.06666 0.24666 -0.046718 0.46 -0.34006 s0.42 -0.67 0.62 -1.13 s0.36666 -0.95 0.5 -1.47 s0.17334 -0.97334 0.12 -1.36 c0 -0.08 0.03334 -0.13 0.1 -0.15 s0.14332 -0.03 0.22998 -0.03 s0.17332 0.0066602 0.25998 0.02 s0.15 0.02668 0.19 0.04002 c-0.02666 0.29334 -0.06332 0.66334 -0.10998 1.11 s-0.07666 0.89 -0.09 1.33 s0.0033204 0.84 0.04998 1.2 s0.15666 0.59334 0.33 0.7 c0.14666 0.09334 0.31666 0.08668 0.51 -0.01998 s0.38 -0.24 0.56 -0.4 s0.34334 -0.30334 0.49 -0.43 s0.24 -0.17 0.28 -0.13 c-0.05334 0.22666 -0.16668 0.44666 -0.34002 0.66 s-0.37 0.39334 -0.59 0.54 s-0.45334 0.25 -0.7 0.31 s-0.47 0.05 -0.67 -0.03 c-0.08 -0.01334 -0.14334 -0.09 -0.19 -0.23 s-0.08666 -0.30334 -0.12 -0.49 s-0.06 -0.38666 -0.08 -0.6 s-0.04334 -0.40668 -0.07 -0.58002 l-0.36 0.72 l-0.4 0.76 l-0.38 0.62 l-0.3 0.3 c-0.26666 0.10666 -0.47332 0.13 -0.61998 0.07 s-0.24666 -0.14334 -0.3 -0.25 c-0.08 -0.04 -0.13666 -0.17666 -0.17 -0.41 s-0.06 -0.53 -0.08 -0.89 s-0.03 -0.76666 -0.03 -1.22 l0 -1.39 l-0.02 -1.4 l-0.06 -1.27 c0.09334 0 0.18668 0.0066602 0.28002 0.02 c0.08 0.01334 0.16 0.03 0.24 0.05 s0.14666 0.06334 0.2 0.13 c0.06666 0.30666 0.07666 0.84666 0.03 1.62 s-0.08332 1.7067 -0.10998 2.8 c0 0.04 0.0033398 0.11666 0.01 0.23 s0.02 0.23668 0.04 0.37002 s0.05334 0.26 0.1 0.38 s0.11 0.2 0.19 0.24 z M56.42000000000001 15.86 c0 0.04 0.019961 0.22668 0.059962 0.56002 s0.08666 0.74 0.14 1.22 s0.11668 0.99666 0.19002 1.55 s0.14 1.08 0.2 1.58 s0.11666 0.94 0.17 1.32 s0.08668 0.62334 0.10002 0.73 c-0.08 -0.01334 -0.14666 -0.02668 -0.2 -0.04002 s-0.10668 -0.04668 -0.16002 -0.10002 s-0.11668 -0.13 -0.19002 -0.23 s-0.17668 -0.24334 -0.31002 -0.43 c-0.17334 -1.2267 -0.31 -2.2966 -0.41 -3.21 s-0.18334 -1.6567 -0.25 -2.23 c-0.24 0.32 -0.41334 0.53334 -0.52 0.64 s-0.17332 0.16 -0.19998 0.16 c-0.04 0 -0.04666 -0.06 -0.02 -0.18 l0.04 -0.2 l0.04 -0.18 l0.06 -0.14 c0.09334 -0.13334 0.17668 -0.26668 0.25002 -0.40002 s0.13 -0.25334 0.17 -0.36 c0.05334 -0.13334 0.09334 -0.26 0.12 -0.38 c-0.01334 -0.14666 -0.02334 -0.27332 -0.03 -0.37998 s-0.01 -0.21666 -0.01 -0.33 s-0.0033398 -0.23 -0.01 -0.35 s-0.01 -0.27334 -0.01 -0.46 l0 -0.79 l0 -1.18 l0.02 -1.37 l0.05 -1.37 l0.08 -1.18 l0.11 -0.81 c0.09334 -0.38666 0.23668 -0.68332 0.43002 -0.88998 s0.39668 -0.32666 0.61002 -0.36 s0.42334 0.02 0.63 0.16 s0.36332 0.35666 0.46998 0.65 c0.12 0.29334 0.18 0.67334 0.18 1.14 s-0.04 0.97666 -0.12 1.53 s-0.19 1.13 -0.33 1.73 s-0.29 1.1833 -0.45 1.75 s-0.32 1.0967 -0.48 1.59 s-0.3 0.90668 -0.42 1.24 z M56.25996000000001 14.719999999999999 c0.33334 -0.97334 0.60662 -1.93 0.81996 -2.87 s0.37 -1.7833 0.47 -2.53 s0.13334 -1.35 0.1 -1.81 s-0.13 -0.69666 -0.29 -0.71 c-0.25334 -0.09334 -0.45334 -0.0066796 -0.6 0.25998 s-0.26332 0.64 -0.34998 1.12 s-0.14332 1.03 -0.16998 1.65 s-0.03666 1.2367 -0.03 1.85 s0.01666 1.1933 0.03 1.74 s0.02 0.98 0.02 1.3 z M59.96000000000001 15.86 c0 0.04 0.019961 0.22668 0.059962 0.56002 s0.08666 0.74 0.14 1.22 s0.11668 0.99666 0.19002 1.55 s0.14 1.08 0.2 1.58 s0.11666 0.94 0.17 1.32 s0.08668 0.62334 0.10002 0.73 c-0.08 -0.01334 -0.14666 -0.02668 -0.2 -0.04002 s-0.10668 -0.04668 -0.16002 -0.10002 s-0.11668 -0.13 -0.19002 -0.23 s-0.17668 -0.24334 -0.31002 -0.43 c-0.17334 -1.2267 -0.31 -2.2966 -0.41 -3.21 s-0.18334 -1.6567 -0.25 -2.23 c-0.24 0.32 -0.41334 0.53334 -0.52 0.64 s-0.17332 0.16 -0.19998 0.16 c-0.04 0 -0.04666 -0.06 -0.02 -0.18 l0.04 -0.2 l0.04 -0.18 l0.06 -0.14 c0.09334 -0.13334 0.17668 -0.26668 0.25002 -0.40002 s0.13 -0.25334 0.17 -0.36 c0.05334 -0.13334 0.09334 -0.26 0.12 -0.38 c-0.01334 -0.14666 -0.02334 -0.27332 -0.03 -0.37998 s-0.01 -0.21666 -0.01 -0.33 s-0.0033398 -0.23 -0.01 -0.35 s-0.01 -0.27334 -0.01 -0.46 l0 -0.79 l0 -1.18 l0.02 -1.37 l0.05 -1.37 l0.08 -1.18 l0.11 -0.81 c0.09334 -0.38666 0.23668 -0.68332 0.43002 -0.88998 s0.39668 -0.32666 0.61002 -0.36 s0.42334 0.02 0.63 0.16 s0.36332 0.35666 0.46998 0.65 c0.12 0.29334 0.18 0.67334 0.18 1.14 s-0.04 0.97666 -0.12 1.53 s-0.19 1.13 -0.33 1.73 s-0.29 1.1833 -0.45 1.75 s-0.32 1.0967 -0.48 1.59 s-0.3 0.90668 -0.42 1.24 z M59.799960000000006 14.719999999999999 c0.33334 -0.97334 0.60662 -1.93 0.81996 -2.87 s0.37 -1.7833 0.47 -2.53 s0.13334 -1.35 0.1 -1.81 s-0.13 -0.69666 -0.29 -0.71 c-0.25334 -0.09334 -0.45334 -0.0066796 -0.6 0.25998 s-0.26332 0.64 -0.34998 1.12 s-0.14332 1.03 -0.16998 1.65 s-0.03666 1.2367 -0.03 1.85 s0.01666 1.1933 0.03 1.74 s0.02 0.98 0.02 1.3 z"></path></g><g id="SvgjsG6915" featurekey="jZLKOX-0" transform="matrix(0.6006868489976513,0,0,0.6006868489976513,222.17105207964008,126.8586950728334)" fill="#111111"><path d="M12.06 5.720000000000001 l0 2.64 l-7.54 0 l0 3.06 l6.92 0 l0 2.44 l-6.92 0 l0 3.5 l7.7 0 l0 2.64 l-10.84 0 l0 -14.28 l10.68 0 z M29.191499999999998 5.720000000000001 l3.18 10.04 l0.04 0 l3.22 -10.04 l3.24 0 l-4.74 14.28 l-3.54 0 l-4.64 -14.28 l3.24 0 z M63.923 5.720000000000001 l0 2.64 l-7.54 0 l0 3.06 l6.92 0 l0 2.44 l-6.92 0 l0 3.5 l7.7 0 l0 2.64 l-10.84 0 l0 -14.28 l10.68 0 z M82.4945 5.720000000000001 l0 11.64 l6.96 0 l0 2.64 l-10.1 0 l0 -14.28 l3.14 0 z M107.506 5.720000000000001 l0 14.28 l-3.14 0 l0 -14.28 l3.14 0 z M126.5375 5.720000000000001 l5.96 9.58 l0.04 0 l0 -9.58 l2.94 0 l0 14.28 l-3.14 0 l-5.94 -9.56 l-0.04 0 l0 9.56 l-2.94 0 l0 -14.28 l3.12 0 z M158.509 5.720000000000001 l5.34 14.28 l-3.26 0 l-1.08 -3.18 l-5.34 0 l-1.12 3.18 l-3.18 0 l5.42 -14.28 l3.22 0 z M156.849 9.24 l-1.86 5.24 l3.7 0 l-1.8 -5.24 l-0.04 0 z M200.092 5.720000000000001 l0 5.48 l5.78 0 l0 -5.48 l3.14 0 l0 14.28 l-3.14 0 l0 -6.16 l-5.78 0 l0 6.16 l-3.14 0 l0 -14.28 l3.14 0 z M232.0435 5.720000000000001 l5.34 14.28 l-3.26 0 l-1.08 -3.18 l-5.34 0 l-1.12 3.18 l-3.18 0 l5.42 -14.28 l3.22 0 z M230.3835 9.24 l-1.86 5.24 l3.7 0 l-1.8 -5.24 l-0.04 0 z M229.7035 1.8999999999999986 l0 2.34 l-2.7 0 l0 -2.34 l2.7 0 z M233.8235 1.8999999999999986 l0 2.34 l-2.7 0 l0 -2.34 l2.7 0 z M254.915 5.720000000000001 l0 11.64 l6.96 0 l0 2.64 l-10.1 0 l0 -14.28 l3.14 0 z M279.9265 5.720000000000001 l0 11.64 l6.96 0 l0 2.64 l-10.1 0 l0 -14.28 l3.14 0 z"></path></g></svg>